HIERARCHY
ROOT RootJoint
{
    OFFSET   0.000000   0.000000   0.000000
    CHANNELS 6 Xposition Yposition Zposition Xrotation Yrotation Zrotation
    JOINT pelvis_lowerback
    {
        OFFSET   0.000000   0.093605   0.000000
        CHANNELS 3 Xrotation Yrotation Zrotation
        JOINT lowerback_torso
        {
            OFFSET   0.000000   0.100000   0.000000
            CHANNELS 3 Xrotation Yrotation Zrotation
            JOINT torso_head
            {
                OFFSET   0.000000   0.282350   0.000000
                CHANNELS 3 Xrotation Yrotation Zrotation
                End Site
                {
                    OFFSET   0.000000   0.192650   0.000000
                }
            }
            JOINT rTorso_Clavicle
            {
                OFFSET  -0.001000   0.157500   0.000000
                CHANNELS 3 Xrotation Yrotation Zrotation
                JOINT rShoulder
                {
                    OFFSET  -0.117647   0.000000   0.000000
                    CHANNELS 3 Xrotation Yrotation Zrotation
                    JOINT rElbow
                    {
                        OFFSET  -0.245000   0.000000   0.000000
                        CHANNELS 3 Xrotation Yrotation Zrotation
                        JOINT rWrist
                        {
                            OFFSET  -0.240000   0.000000   0.000000
                            CHANNELS 3 Xrotation Yrotation Zrotation
                            End Site
                            {
                                OFFSET  -0.116353  -0.002500   0.000000
                            }
                        }
                    }
                }
            }
            JOINT lTorso_Clavicle
            {
                OFFSET   0.001000   0.157500   0.000000
                CHANNELS 3 Xrotation Yrotation Zrotation
                JOINT lShoulder
                {
                    OFFSET   0.117647   0.000000   0.000000
                    CHANNELS 3 Xrotation Yrotation Zrotation
                    JOINT lElbow
                    {
                        OFFSET   0.245000   0.000000   0.000000
                        CHANNELS 3 Xrotation Yrotation Zrotation
                        JOINT lWrist
                        {
                            OFFSET   0.240000   0.000000   0.000000
                            CHANNELS 3 Xrotation Yrotation Zrotation
                            End Site
                            {
                                OFFSET   0.116353  -0.002500   0.000000
                            }
                        }
                    }
                }
            }
        }
    }
    JOINT rHip
    {
        OFFSET  -0.100000  -0.051395   0.000000
        CHANNELS 3 Xrotation Yrotation Zrotation
        JOINT rKnee
        {
            OFFSET   0.000000  -0.410000   0.000000
            CHANNELS 3 Xrotation Yrotation Zrotation
            JOINT rAnkle
            {
                OFFSET   0.000000  -0.390000   0.000000
                CHANNELS 3 Xrotation Yrotation Zrotation
                JOINT rToeJoint
                {
                    OFFSET   0.000000  -0.050000   0.130000
                    CHANNELS 3 Xrotation Yrotation Zrotation
                    End Site
                    {
                        OFFSET  -0.010000   0.002000   0.060000
                    }
                }
            }
        }
    }
    JOINT lHip
    {
        OFFSET   0.100000  -0.051395   0.000000
        CHANNELS 3 Xrotation Yrotation Zrotation
        JOINT lKnee
        {
            OFFSET   0.000000  -0.410000   0.000000
            CHANNELS 3 Xrotation Yrotation Zrotation
            JOINT lAnkle
            {
                OFFSET   0.000000  -0.390000   0.000000
                CHANNELS 3 Xrotation Yrotation Zrotation
                JOINT lToeJoint
                {
                    OFFSET   0.000000  -0.050000   0.130000
                    CHANNELS 3 Xrotation Yrotation Zrotation
                    End Site
                    {
                        OFFSET   0.010000   0.002000   0.060000
                    }
                }
            }
        }
    }
}
MOTION
Frames: 14
Frame Time:   0.008333
 -2.400846   0.875238   5.609919 -12.404426  -5.612526   1.435541  12.369054   2.388582  -5.205922   5.256126   0.228758  -2.189208   1.824855  -3.264100   2.639345  -0.811014   2.749870   8.134758  -2.025904   7.284477  43.486593  -0.002963  26.225384  -0.006360   3.114011   3.737140  -2.014124   3.967898   3.645063  -9.093291   7.441462  -0.413515 -48.147774  -0.000153 -12.321170   0.000119   2.054225  -1.465978   0.000755  12.665971  -6.854723  -6.625859  61.665229  -0.021696  -0.035340   9.639827  -2.979674   4.222904 -19.889455   0.006785  -0.090464 -13.450138   1.294342  -1.098551  30.924260   0.001485  -0.003010  -6.492505  10.857046   6.552695  -0.626566  -0.003103  -0.002272
 -2.400742   0.877964   5.622269 -12.595956  -5.643242   1.475097  12.378954   2.208406  -5.177804   5.195128   0.227918  -2.169417   1.842707  -3.317248   2.589388  -0.692125   2.643856   8.195219  -1.685668   7.133220  43.724152  -0.004142  25.630915  -0.006180   3.149626   3.777308  -1.893708   4.004771   3.631381  -9.100482   7.376924  -0.412462 -48.141075  -0.000352 -12.497296   0.000129   2.043538  -1.367403   0.018696  11.431196  -7.087144  -6.944956  63.737595  -0.024481  -0.032259   9.153443  -3.861207   4.107478 -18.027325   0.004965  -0.090746 -12.125950   1.344179  -1.273116  30.490251   0.000829  -0.002321  -6.863344  10.677316   6.746129  -0.407747  -0.002778  -0.002243
 -2.400750   0.880954   5.634334 -12.764506  -5.710911   1.463482  12.401664   2.024925  -5.106333   5.149097   0.219457  -2.132394   1.864832  -3.364023   2.540132  -0.564732   2.538690   8.239050  -1.352663   6.984575  43.950838  -0.005012  25.065530  -0.006014   3.186591   3.756424  -1.712832   4.020135   3.607086  -9.107566   7.299130  -0.429213 -48.148237  -0.000528 -12.679073   0.000255   2.034819  -1.374670   0.017984  10.081897  -7.306795  -7.202041  65.532400  -0.026806  -0.028875   8.669586  -4.686600   3.988210 -16.448730   0.001483  -0.087124 -10.741732   1.375365  -1.390032  29.878827   0.000259  -0.001574  -7.292544  10.506872   6.933171  -0.220782  -0.002446  -0.002168
 -2.400855   0.883956   5.646221 -12.926096  -5.791287   1.414733  12.434601   1.826892  -5.007716   5.117520   0.189562  -2.076040   1.889427  -3.407427   2.496493  -0.435525   2.427064   8.265416  -1.032426   6.838013  44.159009  -0.005473  24.534098  -0.005983   3.221772   3.708697  -1.518081   4.026622   3.577195  -9.103790   7.219791  -0.451471 -48.156674  -0.000695 -12.854613   0.000450   2.026502  -1.427091   0.005677   8.670901  -7.514865  -7.413011  67.140706  -0.028332  -0.025438   8.210991  -5.454737   3.869200 -15.016100  -0.002308  -0.081805  -9.332387   1.386391  -1.466630  29.183896  -0.000175  -0.000837  -7.743562  10.343995   7.114685  -0.056941  -0.002143  -0.002065
 -2.401051   0.886871   5.657953 -13.082079  -5.839453   1.357590  12.475399   1.601569  -4.902289   5.098345   0.128207  -2.006663   1.915017  -3.448832   2.458348  -0.303626   2.305966   8.280199  -0.723475   6.690927  44.348735  -0.005637  24.033629  -0.005983   3.254474   3.639433  -1.332445   4.024423   3.539566  -9.084611   7.139062  -0.477893 -48.156481  -0.000854 -13.022189   0.000655   2.019188  -1.499744   0.000087   7.236548  -7.715186  -7.593531  68.598081  -0.028649  -0.021853   7.778552  -6.169766   3.751889 -13.710222  -0.005486  -0.075246  -7.921588   1.402687  -1.519958  28.458799  -0.000553  -0.000520  -8.300771  10.214298   7.290039   0.097015  -0.001857  -0.001837
 -2.401326   0.889575   5.669592 -13.235153  -5.845229   1.292770  12.517471   1.356015  -4.785975   5.089113   0.039319  -1.926738   1.941385  -3.488198   2.424188  -0.167861   2.173961   8.280623  -0.423899   6.541824  44.519139  -0.005575  23.561551  -0.005968   3.284955   3.548296  -1.159946   4.016452   3.497420  -9.049729   7.058889  -0.506403 -48.147588  -0.001001 -13.181472   0.000824   2.012946  -1.584601   0.006028   5.810848  -7.903245  -7.747881  69.929674  -0.027872  -0.018339   7.371502  -6.835664   3.637002 -12.519467  -0.007751  -0.068069  -6.527207   1.420606  -1.550230  27.727391  -0.000876  -0.000588  -8.836561  10.101478   7.455916   0.226757  -0.001600  -0.001551
 -2.401672   0.892017   5.681164 -13.385320  -5.798860   1.230993  12.558534   1.093847  -4.666361   5.086813  -0.073643  -1.840049   1.967538  -3.525616   2.393712  -0.028705   2.032551   8.270767  -0.133315   6.390885  44.672028  -0.005374  23.115663  -0.005890   3.313367   3.434610  -1.003365   4.003272   3.451325  -9.001564   6.979416  -0.536423 -48.129249  -0.001129 -13.332457   0.000938   2.007641  -1.677191   0.027472   4.414066  -8.077087  -7.888958  71.151682  -0.026166  -0.015024   6.988920  -7.456055   3.525147 -11.432688  -0.009039  -0.060728  -5.162740   1.442193  -1.565300  27.019189  -0.001144  -0.001005  -9.366265  10.005044   7.611809   0.345310  -0.001380  -0.001237
 -2.402298   0.894863   5.692702 -13.555671  -5.585485   1.039797  12.681608   0.822753  -4.413433   5.036708  -0.176396  -1.697281   2.011362  -3.499424   2.363127   0.132956   1.794011   8.288097   0.227220   6.221809  44.786187  -0.005870  22.502821  -0.005766   3.351073   3.494902  -0.913825   3.986224   3.389726  -8.981911   6.863226  -0.662145 -48.118145  -0.001438 -13.611344   0.001128   2.055170  -1.696826   0.095616   3.259347  -8.281220  -7.741735  71.358985  -0.021414  -0.011725   5.754599  -8.089308   3.371265 -10.548036  -0.010591  -0.051885  -3.690574   1.468473  -1.371979  26.089626  -0.001443  -0.003175  -9.713209   9.710277   7.478369   0.672750  -0.000685  -0.000991
 -2.402965   0.897623   5.704053 -13.682155  -5.340576   0.841439  12.800604   0.560461  -4.142292   4.981984  -0.292283  -1.540731   2.049836  -3.468355   2.336397   0.314010   1.541050   8.285517   0.590420   6.038906  44.889340  -0.006221  21.914024  -0.005447   3.386796   3.471035  -0.812004   3.949704   3.319385  -8.955005   6.736405  -0.796988 -48.118460  -0.001691 -13.888300   0.001252   2.100579  -1.808234   0.147081   2.042779  -8.459409  -7.568539  71.291573  -0.017047  -0.009426   4.575292  -8.675837   3.211640  -9.810641  -0.011363  -0.043654  -2.249961   1.479742  -1.155488  25.084793  -0.001610  -0.005204  -9.998759   9.405617   7.346236   0.981977  -0.000186  -0.000799
 -2.403663   0.900135   5.715261 -13.799538  -5.072047   0.651068  12.930739   0.292924  -3.871279   4.940538  -0.423838  -1.380696   2.086580  -3.438265   2.313586   0.496876   1.288283   8.268407   0.941886   5.855739  44.980179  -0.006357  21.357812  -0.005061   3.420582   3.402141  -0.709100   3.905104   3.244057  -8.918115   6.609161  -0.930662 -48.117093  -0.001895 -14.153132   0.001362   2.143552  -1.960011   0.194253   0.790371  -8.616312  -7.409623  71.131598  -0.013461  -0.007745   3.466328  -9.219916   3.051093  -9.144139  -0.011620  -0.036519  -0.840648   1.473637  -0.937336  24.087209  -0.001627  -0.006794 -10.272044   9.104112   7.223232   1.265686   0.000137  -0.000647
 -2.404400   0.902346   5.726374 -13.919685  -4.781056   0.474443  13.070424   0.020574  -3.608351   4.916426  -0.568029  -1.221418   2.123507  -3.410152   2.293784   0.677386   1.039360   8.243982   1.278742   5.675591  45.060773  -0.006326  20.834048  -0.004646   3.452636   3.307671  -0.612858   3.857380   3.167014  -8.872371   6.485371  -1.059478 -48.109805  -0.002046 -14.403224   0.001440   2.185136  -2.124797   0.247388  -0.469125  -8.753433  -7.274703  70.935227  -0.010627  -0.006479   2.426084  -9.725057   2.891576  -8.538542  -0.011452  -0.030407   0.536219   1.451618  -0.722651  23.133210  -0.001527  -0.007939 -10.556181   8.805335   7.109650   1.179929   0.000037  -0.000515
 -2.405185   0.904248   5.737420 -14.043906  -4.469405   0.315021  13.214345  -0.252487  -3.357623   4.907022  -0.720504  -1.065713   2.160480  -3.384095   2.276146   0.854429   0.795811   8.217540   1.600690   5.499731  45.134032  -0.006184  20.341290  -0.004213   3.483128   3.195535  -0.523601   3.809145   3.090645  -8.820472   6.366840  -1.181864 -48.096596  -0.002143 -14.638028   0.001468   2.225604  -2.290711   0.309448  -1.716935  -8.871496  -7.166227  70.723080  -0.008428  -0.005515   1.451163 -10.194262   2.734381  -7.987532  -0.010968  -0.025198   1.878709   1.415201  -0.513022  22.235824  -0.001348  -0.008697 -10.860138   8.508785   7.001791   1.110363  -0.000020  -0.000411
 -2.406025   0.905850   5.748412 -14.169680  -4.139383   0.174528  13.357290  -0.522011  -3.120876   4.907984  -0.877070  -0.915441   2.196798  -3.359969   2.260106   1.027182   0.558966   8.192464   1.907695   5.329180  45.202369  -0.005974  19.878048  -0.003766   3.512210   3.070437  -0.439177   3.761869   3.016481  -8.765474   6.254406  -1.297267 -48.079049  -0.002184 -14.857826   0.001442   2.264979  -2.452719   0.379247  -2.940874  -8.971628  -7.083414  70.504381  -0.006744  -0.004779   0.537846 -10.630201   2.580478  -7.485817  -0.010271  -0.020776   3.185119   1.365856  -0.308503  21.397279  -0.001122  -0.009144 -11.186674   8.214323   6.898310   1.054193  -0.000049  -0.000327
 -2.407016   0.907569   5.759586 -14.280621  -3.760084   0.018371  13.483948  -0.781725  -2.868542   4.873290  -0.970846  -0.771739   2.200983  -3.318776   2.240813   1.199641   0.214129   8.221137   2.240221   5.111201  45.304664  -0.006225  19.325652  -0.003680   3.507283   3.068154  -0.446685   3.748822   3.020364  -8.705818   6.096628  -1.482556 -48.034172  -0.002771 -15.302590   0.001137   2.328238  -2.468218   0.430888  -3.853370  -9.118532  -6.932267  69.011493  -0.005828  -0.006772  -0.305055 -11.122877   2.560311  -7.074087  -0.010472  -0.017216   4.551998   1.386205  -0.028837  20.407000  -0.000847  -0.010925 -11.375963   7.806243   6.599995   0.926049  -0.000286  -0.000251
